<svg width="187" height="69" viewBox="0 0 187 69" fill="none" xmlns="http://www.w3.org/2000/svg">
<path d="M52.767 24.6214H57.506V44.3152H52.767V24.6214ZM54.8281 32.1618H68.4834V36.4107H54.8281V32.1618ZM65.2936 24.6214H70.0326V44.3152H65.2936V24.6214Z" fill="#004A98"/>
<path d="M75.0538 43.6558C74.1132 43.0461 73.4077 42.1798 72.9374 41.0541C72.4671 39.9284 72.232 38.6262 72.232 37.1446C72.232 35.663 72.4671 34.369 72.9374 33.2626C73.4077 32.1563 74.1132 31.2927 75.0538 30.6747C75.9944 30.0567 77.1314 29.7449 78.4676 29.7449C79.6517 29.7449 80.6725 30.0208 81.5274 30.5754C82.3822 31.1299 83.0406 31.9576 83.5026 33.064C83.9646 34.1704 84.1942 35.5305 84.1942 37.1446C84.1942 37.6136 84.1832 37.9888 84.1666 38.2702C84.0725 39.6387 83.782 40.792 83.2924 41.73C82.8027 42.6681 82.1498 43.3772 81.3309 43.8545C80.5121 44.3318 79.5576 44.5718 78.4676 44.5718C77.1314 44.5718 75.9944 44.2683 75.0538 43.6586V43.6558ZM82.064 39.8291C82.5814 39.2 82.8387 38.3061 82.8387 37.1418C82.8387 35.9775 82.5786 35.0891 82.064 34.4683C81.5467 33.8503 80.8081 33.5385 79.8509 33.5385C78.8937 33.5385 78.1578 33.8476 77.6515 34.4683C77.1425 35.0863 76.8907 35.9775 76.8907 37.1418C76.8907 37.9116 77.0042 38.5682 77.2283 39.1117C77.4551 39.6553 77.7871 40.0691 78.2297 40.3505C78.6724 40.632 79.2118 40.7727 79.8509 40.7727C80.8108 40.7727 81.5467 40.4581 82.064 39.8291ZM82.8414 41.192V33.0336L83.4335 29.996H87.4393V41.2224L87.8626 44.318H83.4888L82.8387 41.1948L82.8414 41.192Z" fill="#004A98"/>
<path d="M90.0896 33.0337L89.6663 29.996H94.0401L94.7456 33.1744L94.0955 32.7246C94.5077 31.7314 95.1163 30.9837 95.9158 30.4871C96.7153 29.9905 97.678 29.7422 98.8068 29.7422C100.613 29.7422 101.925 30.2774 102.743 31.3451C103.562 32.4156 103.972 34.0076 103.972 36.1293V44.3152H99.3739V36.6618C99.3739 35.6106 99.1802 34.8298 98.7957 34.3111C98.4112 33.7951 97.833 33.5386 97.0611 33.5386C96.2533 33.5386 95.6557 33.7979 95.2684 34.3111C94.8839 34.827 94.6902 35.6299 94.6902 36.7169V44.3125H90.0924V33.0309L90.0896 33.0337Z" fill="#004A98"/>
<path d="M59.567 48.2358H73.2223V52.4571H63.1219L64.306 51.359V67.9296H59.567V48.2358ZM63.9104 57.2936H72.3454V61.5425H63.9104V57.2936Z" fill="#004A98"/>
<path d="M77.6791 67.2536C76.5117 66.6356 75.6375 65.7638 75.0565 64.6381C74.4728 63.5124 74.1823 62.2184 74.1823 60.7562C74.1823 59.2939 74.4728 58.0082 75.0565 56.9018C75.6402 55.7955 76.5145 54.9291 77.6791 54.3001C78.8438 53.671 80.2658 53.3565 81.9395 53.3565C83.6132 53.3565 85.038 53.671 86.2137 54.3001C87.3895 54.9291 88.2692 55.7955 88.8502 56.9018C89.4339 58.0082 89.7244 59.2939 89.7244 60.7562C89.7244 62.2184 89.4339 63.5124 88.8502 64.6381C88.2664 65.7638 87.3867 66.6356 86.2137 67.2536C85.038 67.8717 83.6132 68.1834 81.9395 68.1834C80.2658 68.1834 78.8466 67.8744 77.6791 67.2536ZM84.2661 63.4407C84.8028 62.8116 85.0712 61.9177 85.0712 60.7534C85.0712 59.9836 84.9494 59.3325 84.7032 58.7973C84.4598 58.262 84.1057 57.8537 83.6464 57.5723C83.1844 57.2909 82.6173 57.1501 81.9395 57.1501C80.9242 57.1501 80.1524 57.4592 79.6267 58.0799C79.1011 58.6979 78.8355 59.5891 78.8355 60.7534C78.8355 61.5232 78.9517 62.1798 79.1869 62.7233C79.422 63.2669 79.7706 63.6807 80.2298 63.9621C80.6918 64.2436 81.259 64.3843 81.9367 64.3843C82.952 64.3843 83.7294 64.0697 84.2634 63.4407H84.2661Z" fill="#004A98"/>
<path d="M91.0219 64.216V57.5474L90.9942 56.4494L90.5986 53.6076H94.9724L95.5645 56.1679C95.8854 55.2878 96.364 54.6174 97.003 54.1566C97.6421 53.6959 98.4693 53.4669 99.4846 53.4669H100.245V58.2786H99.172C98.1179 58.2786 97.3516 58.3807 96.873 58.5876C96.3944 58.7945 96.0652 59.1752 95.8854 59.7271C95.7056 60.2816 95.617 61.1479 95.617 62.3288V67.9268H91.0191V64.2132L91.0219 64.216Z" fill="#004A98"/>
<path d="M101.573 53.6076H113.336V57.3764H101.573V53.6076ZM107.242 67.353C106.395 66.9695 105.751 66.3321 105.308 65.441C104.865 64.5498 104.644 63.3552 104.644 61.8543V54.3139L106.138 49.2208H109.27V61.937C109.27 62.4061 109.325 62.7868 109.438 63.0765C109.552 63.3662 109.743 63.5842 110.017 63.7249C110.288 63.8656 110.669 63.9346 111.159 63.9346H113.754V67.9296H110.426C109.148 67.9296 108.086 67.7365 107.239 67.353H107.242Z" fill="#004A98"/>
<path d="M115.284 56.648L114.861 53.6103H119.234L119.94 56.7611L119.234 56.339C119.647 55.3651 120.236 54.6229 120.997 54.1152C121.757 53.6076 122.657 53.3565 123.691 53.3565C124.895 53.3565 125.863 53.6324 126.596 54.187C127.329 54.7415 127.846 55.5692 128.148 56.6756L127.47 56.648C127.866 55.5775 128.472 54.7636 129.291 54.2008C130.109 53.6379 131.083 53.3565 132.209 53.3565C133.938 53.3565 135.2 53.8918 135.988 54.9595C136.777 56.0272 137.172 57.6219 137.172 59.7436V67.9296H132.574V60.0802C132.574 59.3684 132.494 58.8 132.334 58.3779C132.173 57.9558 131.949 57.6468 131.656 57.4481C131.365 57.2522 131.003 57.1529 130.569 57.1529C129.891 57.1529 129.385 57.3874 129.044 57.8565C128.707 58.3255 128.535 59.0677 128.535 60.0802V67.9296H123.91V60.0802C123.91 59.3684 123.83 58.8 123.669 58.3779C123.509 57.9558 123.285 57.6468 122.991 57.4481C122.698 57.2522 122.347 57.1529 121.934 57.1529C121.257 57.1529 120.745 57.3874 120.396 57.8565C120.048 58.3255 119.873 59.0677 119.873 60.0802V67.9296H115.276V56.648H115.284Z" fill="#004A98"/>
<path d="M141.659 67.2674C140.719 66.6577 140.013 65.7914 139.543 64.6657C139.073 63.54 138.838 62.2378 138.838 60.7562C138.838 59.2746 139.073 57.9806 139.543 56.8742C140.013 55.7679 140.719 54.9043 141.659 54.2863C142.6 53.6683 143.737 53.3565 145.073 53.3565C146.257 53.3565 147.278 53.6324 148.133 54.187C148.988 54.7415 149.646 55.5692 150.108 56.6756C150.57 57.782 150.8 59.1422 150.8 60.7562C150.8 61.2252 150.789 61.6004 150.772 61.8818C150.678 63.2503 150.388 64.4036 149.898 65.3416C149.408 66.2797 148.755 66.9888 147.937 67.4661C147.118 67.9434 146.163 68.1834 145.073 68.1834C143.737 68.1834 142.6 67.8799 141.659 67.2702V67.2674ZM148.67 63.4407C149.187 62.8116 149.444 61.9177 149.444 60.7534C149.444 59.5891 149.184 58.7007 148.67 58.0799C148.152 57.4619 147.414 57.1501 146.457 57.1501C145.499 57.1501 144.763 57.4592 144.257 58.0799C143.748 58.6979 143.496 59.5891 143.496 60.7534C143.496 61.5232 143.61 62.1798 143.834 62.7233C144.061 63.2669 144.393 63.6807 144.835 63.9621C145.278 64.2436 145.817 64.3843 146.457 64.3843C147.417 64.3843 148.152 64.0697 148.67 63.4407ZM149.447 64.8064V56.648L150.039 53.6103H154.045V64.8367L154.468 67.9324H150.094L149.444 64.8092L149.447 64.8064Z" fill="#004A98"/>
<path d="M156.134 56.648L155.71 53.6103H160.084L160.79 56.7887L160.14 56.339C160.552 55.3458 161.16 54.5981 161.96 54.1014C162.759 53.6048 163.722 53.3565 164.851 53.3565C166.657 53.3565 167.969 53.8918 168.788 54.9595C169.606 56.03 170.016 57.6219 170.016 59.7436V67.9296H165.418V60.2761C165.418 59.2249 165.224 58.4441 164.84 57.9254C164.455 57.4095 163.877 57.1529 163.105 57.1529C162.297 57.1529 161.7 57.4122 161.313 57.9254C160.928 58.4414 160.734 59.2442 160.734 60.3313V67.9268H156.136V56.6452L156.134 56.648Z" fill="#004A98"/>
<path d="M172.412 56.648L171.988 53.6103H176.362L177.068 56.7887L176.418 56.339C176.83 55.3458 177.438 54.5981 178.238 54.1014C179.037 53.6048 180 53.3565 181.129 53.3565C182.935 53.3565 184.247 53.8918 185.066 54.9595C185.884 56.03 186.294 57.6219 186.294 59.7436V67.9296H181.696V60.2761C181.696 59.2249 181.502 58.4441 181.118 57.9254C180.733 57.4095 180.155 57.1529 179.383 57.1529C178.575 57.1529 177.978 57.4122 177.591 57.9254C177.206 58.4414 177.012 59.2442 177.012 60.3313V67.9268H172.414V56.6452L172.412 56.648Z" fill="#004A98"/>
<path d="M15.9175 13.9634C19.0962 16.3113 22.4077 17.5611 25.2018 17.5611C26.3804 17.5611 27.4704 17.3376 28.4165 16.8824C30.4388 15.9057 31.5979 13.9385 31.6809 11.3451C31.8248 6.86168 30.5716 3.24185 28.2394 1.41539C26.3748 -0.0468848 23.9376 -0.375207 20.9968 0.438701C18.9468 1.0043 13.7763 4.31787 13.0598 8.16669C12.6586 10.3187 13.6214 12.2693 15.9175 13.9661V13.9634Z" fill="#7ABA45"/>
<path d="M56.0621 5.11556C55.08 2.84766 53.2817 1.18673 50.72 0.179693L50.637 0.154862C45.8787 -0.98185 42.3099 4.47271 40.1521 9.24856L40.058 9.45824C39.9252 9.74794 39.7371 10.2749 39.4798 11.0033C38.3787 14.1182 35.7976 21.4103 32.1071 23.7747C29.9797 25.1377 27.4954 26.5889 24.9088 26.5889C24.8756 26.5889 24.8451 26.5889 24.8119 26.5889C24.621 26.5889 24.4302 26.5751 24.242 26.5586C21.4949 26.2882 18.9166 24.5114 16.5402 22.6325C16.3659 22.4946 16.1916 22.3539 16.0201 22.2104C10.429 17.5642 4.44513 21.093 4.06336 21.3275C3.83374 21.4599 0.785081 23.2754 0.519499 26.0095C0.372876 27.5353 1.10599 29.0058 2.69948 30.3771C8.03048 34.9653 13.7654 33.6768 14.3104 33.5416C14.7586 33.4727 21.3483 32.5539 25.0084 36.1793C28.4886 39.6253 29.7197 43.8686 29.0059 49.9329C27.714 57.2526 30.9535 63.2589 34.1239 66.1807C35.4573 67.4085 36.7769 68.0293 38.0578 68.0293C38.2902 68.0293 38.5198 68.0099 38.7494 67.9686C41.0512 67.5602 42.2684 65.2371 42.3154 65.1433C42.4372 64.9171 45.2285 59.4984 41.87 53.0064C41.029 51.3842 40.1908 50.0019 39.3802 48.6638C36.8599 44.5115 35.0396 41.5097 35.8585 35.6964C37.4437 27.7284 45.5522 23.4299 46.0446 23.176C46.6367 22.9443 53.3952 20.1908 55.9652 14.2893C56.9086 11.9276 57.4287 8.28015 56.0621 5.12384V5.11556Z" fill="#7ABA45"/>
</svg>
